<!DOCTYPE svg PUBLIC "-//W3C//DTD SVG 1.1//EN" "http://www.w3.org/Graphics/SVG/1.1/DTD/svg11.dtd">
<svg xmlns="http://www.w3.org/2000/svg" xmlns:xlink="http://www.w3.org/1999/xlink" width="219px" height="44px" version="1.1">
    <defs/>
    <g stroke="#777" fill="#777" transform="translate(0.5,0.5)">
        <rect x="98" y="1" width="70" height="40" rx="6" ry="6" fill="none" stroke-width="2" pointer-events="none" />
        <path d="M 178 21 L 197.76 21" fill="none" stroke-width="2" stroke-miterlimit="10" pointer-events="none" />
        <path d="M 205.76 21 L 197.76 23.67 L 197.76 18.33 Z" stroke-width="2" stroke-miterlimit="10" pointer-events="none" />
        <ellipse cx="109" cy="22" rx="7.5" ry="7.5" fill="none" stroke-width="2" pointer-events="none" />
        <path d="M 103.14 26.86 L 113.86 16.14" fill="none" stroke-width="2" stroke-miterlimit="10" pointer-events="none" />
        <path d="M 103.14 16.14 L 113.86 26.86" fill="none" stroke-width="2" stroke-miterlimit="10" pointer-events="none" />
        <ellipse cx="129" cy="22" rx="7.5" ry="7.5" fill="none" stroke-width="2" pointer-events="none" />
        <path d="M 123.14 26.86 L 133.86 16.14" fill="none" stroke-width="2" stroke-miterlimit="10" pointer-events="none" />
        <path d="M 123.14 16.14 L 133.86 26.86" fill="none" stroke-width="2" stroke-miterlimit="10" pointer-events="none" />
        <ellipse cx="157" cy="22" rx="7.5" ry="7.5" fill="none" stroke-width="2" pointer-events="none" />
        <path d="M 151.14 26.86 L 161.86 16.14" fill="none" stroke-width="2" stroke-miterlimit="10" pointer-events="none" />
        <path d="M 151.14 16.14 L 161.86 26.86" fill="none" stroke-width="2" stroke-miterlimit="10" pointer-events="none" />
        <ellipse cx="140" cy="26" rx="1" ry="1" stroke="none" pointer-events="none" />
        <ellipse cx="143" cy="26" rx="1" ry="1" stroke="none" pointer-events="none" />
        <ellipse cx="146" cy="26" rx="1" ry="1" stroke="none" pointer-events="none" />
        <path d="M 0 21 L 17.76 21" fill="none" stroke-width="2" stroke-miterlimit="10" pointer-events="none" />
        <path d="M 25.76 21 L 17.76 23.67 L 17.76 18.33 Z" stroke-width="2" stroke-miterlimit="10" pointer-events="none" />
        <rect x="44" y="6" width="10" height="30" fill="none" stroke-width="2" pointer-events="none" />
        <rect x="33" y="6" width="11" height="30" fill="none" stroke-width="2" pointer-events="none" />
        <rect x="54" y="6" width="12" height="30" fill="none" stroke-width="2" pointer-events="none" />
        <path d="M 70 21 L 83.76 21" fill="none" stroke-width="2" stroke-miterlimit="10" pointer-events="none" />
        <path d="M 91.76 21 L 83.76 23.67 L 83.76 18.33 Z" stroke-width="2" stroke-miterlimit="10" pointer-events="none" />
    </g>
</svg>